<svg width="17" height="17" viewBox="0 0 17 17" fill="none" xmlns="http://www.w3.org/2000/svg">
<path d="M8.50037 0C6.23363 0 4.53358 1.77593 4.53358 3.96667C4.5363 5.73795 5.71194 7.2556 7.367 7.74962V14.5939C6.3124 14.4073 5.24137 13.9711 4.36539 13.1552C3.17263 12.0443 2.26911 10.2766 2.26911 7.3644C2.27784 6.72452 1.75558 6.20432 1.1158 6.21554C0.490745 6.2254 -0.00850379 6.73937 0.000109802 7.3644C0.000109802 10.7677 1.14696 13.2526 2.82242 14.813C4.49788 16.3734 6.6166 17 8.50037 17C10.3881 17 12.5068 16.3658 14.1805 14.8019C15.8541 13.238 16.9984 10.7517 16.9984 7.3644C17.0718 5.78306 14.6604 5.78306 14.7339 7.3644C14.7339 10.2578 13.8275 12.028 12.6332 13.1439C11.7566 13.963 10.6864 14.4029 9.63373 14.5917V7.75404C11.2892 7.25991 12.4656 5.73943 12.4672 3.96667C12.4672 1.77593 10.7671 0 8.50037 0ZM8.50037 2.26667C9.43925 2.26667 10.2004 3.02781 10.2004 3.96667C10.2004 4.90552 9.43925 5.66667 8.50037 5.66667C7.56148 5.66667 6.80031 4.90552 6.80031 3.96667C6.80031 3.02781 7.56148 2.26667 8.50037 2.26667Z" fill="white"/>
</svg>
