<svg width="17" height="19" viewBox="0 0 17 19" fill="none" xmlns="http://www.w3.org/2000/svg">
<path d="M16.9634 11.8378L16.6031 13.4725C15.9791 16.2848 13.7731 18.2887 10.5917 18.2887H6.40831C3.22684 18.2887 1.0209 16.2848 0.396906 13.4725L0.0365732 11.8378C-0.139199 11.038 0.335377 10.1328 1.09999 9.82522L2.34798 9.32418L7.19055 7.38195C7.61241 7.21497 8.06054 7.12708 8.49997 7.12708C8.9394 7.12708 9.38762 7.21497 9.80947 7.38195L14.652 9.32418L15.9001 9.82522C16.6647 10.1328 17.1393 11.038 16.9634 11.8378Z" fill="white"/>
<path opacity="0.4" d="M14.6522 5.98451V9.32418L9.80967 7.3819C8.96597 7.04793 8.03437 7.04793 7.19067 7.3819L2.34814 9.32418V5.98451C2.34814 4.53439 3.53461 3.34793 4.98473 3.34793H12.0156C13.4657 3.34793 14.6522 4.53439 14.6522 5.98451Z" fill="#F5F5F5"/>
<path d="M10.6974 3.34793H6.3031V1.59021C6.3031 1.10684 6.69859 0.711349 7.18196 0.711349H9.81854C10.3019 0.711349 10.6974 1.10684 10.6974 1.59021V3.34793Z" fill="white"/>
</svg>
