<svg width="41" height="23" viewBox="0 0 41 23" fill="none" xmlns="http://www.w3.org/2000/svg">
<path d="M40.0364 10.5808C39.7395 10.1692 32.6605 0.5 23.5715 0.5C16.6044 0.5 10.8188 6.18116 8.36296 9.01924C6.71693 7.28243 3.64936 4.69054 0 4.69054V18.2373C3.62528 18.2373 6.67655 15.6793 8.33044 13.9428C10.7669 16.7679 16.5729 22.5 23.5715 22.5C32.6605 22.5 39.7395 12.8309 40.0364 12.4192L40.6995 11.5001L40.0364 10.5808ZM28.8095 13.0715C27.9417 13.0715 27.2381 12.368 27.2381 11.5001C27.2381 10.6322 27.9416 9.92862 28.8095 9.92862C29.6774 9.92862 30.381 10.6322 30.381 11.5001C30.381 12.368 29.6774 13.0715 28.8095 13.0715Z" fill="#fff"/>
</svg>
