<svg width="26" height="26" viewBox="0 0 26 26" fill="none" xmlns="http://www.w3.org/2000/svg">
<path fill-rule="evenodd" clip-rule="evenodd" d="M14.3 1.3C14.3 0.582036 13.718 0 13 0C12.282 0 11.7 0.582036 11.7 1.3V2.68046C6.99566 3.26708 3.26708 6.99566 2.68046 11.7H1.3C0.582036 11.7 0 12.282 0 13C0 13.718 0.582036 14.3 1.3 14.3H2.68046C3.26708 19.0043 6.99566 22.733 11.7 23.3195V24.7C11.7 25.418 12.282 26 13 26C13.718 26 14.3 25.418 14.3 24.7V23.3195C19.0043 22.733 22.733 19.0043 23.3195 14.3H24.7C25.418 14.3 26 13.718 26 13C26 12.282 25.418 11.7 24.7 11.7H23.3195C22.733 6.99566 19.0043 3.26708 14.3 2.68046V1.3ZM10.4 13C10.4 11.564 11.564 10.4 13 10.4C14.436 10.4 15.6 11.564 15.6 13C15.6 14.436 14.436 15.6 13 15.6C11.564 15.6 10.4 14.436 10.4 13ZM13 7.8C10.1281 7.8 7.8 10.1281 7.8 13C7.8 15.8718 10.1281 18.2 13 18.2C15.8718 18.2 18.2 15.8718 18.2 13C18.2 10.1281 15.8718 7.8 13 7.8Z" fill="white"/>
</svg>
