<svg width="12" height="13" viewBox="0 0 12 13" fill="none" xmlns="http://www.w3.org/2000/svg">
<path fill-rule="evenodd" clip-rule="evenodd" d="M12 6.5C12 9.81368 9.31368 12.5 6 12.5C2.68629 12.5 0 9.81368 0 6.5C0 3.18629 2.68629 0.5 6 0.5C9.31368 0.5 12 3.18629 12 6.5ZM6 9.95C6.24852 9.95 6.45 9.74852 6.45 9.5V5.9C6.45 5.65148 6.24852 5.45 6 5.45C5.75148 5.45 5.55 5.65148 5.55 5.9V9.5C5.55 9.74852 5.75148 9.95 6 9.95ZM6 3.5C6.33138 3.5 6.6 3.76863 6.6 4.1C6.6 4.43137 6.33138 4.7 6 4.7C5.66862 4.7 5.4 4.43137 5.4 4.1C5.4 3.76863 5.66862 3.5 6 3.5Z" fill="#677F90"/>
</svg>
